REM DIRINDEX 1\6,1\2\7,1\2\8,1\2\9,1\3\10,1\3\11,1\4\12,1\4\13,1\4\14,1\5\15,1\5\16,1\5\17
REM DIRNAME folder01,folder02,folder03,folder04,folder05,folder06,folder07,folder08,folder09,folder10,folder11,folder12,folder13,folder14,folder15,folder16,folder17
TITLE ""
FILE "3Q_j_1181-1196.mp3" MP3
  TRACK 01 AUDIO
    TITLE "12:cjc041_0843"
    INDEX 01 00:00:00
  TRACK 02 AUDIO
    TITLE "0:"
    INDEX 01 00:01:34
  TRACK 03 AUDIO
    TITLE "13:cjc041_0844"
    INDEX 01 00:02:14
  TRACK 04 AUDIO
    TITLE "0:"
    INDEX 01 00:03:10
  TRACK 05 AUDIO
    TITLE "14:cjc041_0845"
    INDEX 01 00:03:68
  TRACK 06 AUDIO
    TITLE "0:"
    INDEX 01 00:07:52
  TRACK 07 AUDIO
    TITLE "12:cjc041_0846"
    INDEX 01 00:08:30
  TRACK 08 AUDIO
    TITLE "0:"
    INDEX 01 00:10:18
  TRACK 09 AUDIO
    TITLE "13:cjc041_0847"
    INDEX 01 00:10:68
  TRACK 10 AUDIO
    TITLE "0:"
    INDEX 01 00:12:71
  TRACK 11 AUDIO
    TITLE "14:cjc041_0848"
    INDEX 01 00:13:47
  TRACK 12 AUDIO
    TITLE "0:"
    INDEX 01 00:17:12
  TRACK 13 AUDIO
    TITLE "12:cjc041_0849"
    INDEX 01 00:17:65
  TRACK 14 AUDIO
    TITLE "0:"
    INDEX 01 00:19:18
  TRACK 15 AUDIO
    TITLE "13:cjc041_0850"
    INDEX 01 00:19:71
  TRACK 16 AUDIO
    TITLE "0:"
    INDEX 01 00:20:69
  TRACK 17 AUDIO
    TITLE "14:cjc041_0851"
    INDEX 01 00:21:53
  TRACK 18 AUDIO
    TITLE "0:"
    INDEX 01 00:25:05
  TRACK 19 AUDIO
    TITLE "12:cjc041_0852"
    INDEX 01 00:25:56
  TRACK 20 AUDIO
    TITLE "0:"
    INDEX 01 00:27:10
  TRACK 21 AUDIO
    TITLE "13:cjc041_0853"
    INDEX 01 00:27:65
  TRACK 22 AUDIO
    TITLE "0:"
    INDEX 01 00:30:28
  TRACK 23 AUDIO
    TITLE "14:cjc041_0854"
    INDEX 01 00:31:10
  TRACK 24 AUDIO
    TITLE "0:"
    INDEX 01 00:35:06
  TRACK 25 AUDIO
    TITLE "12:cjc041_0855"
    INDEX 01 00:35:64
  TRACK 26 AUDIO
    TITLE "0:"
    INDEX 01 00:37:32
  TRACK 27 AUDIO
    TITLE "13:cjc041_0856"
    INDEX 01 00:38:10
  TRACK 28 AUDIO
    TITLE "0:"
    INDEX 01 00:39:37
  TRACK 29 AUDIO
    TITLE "14:cjc041_0857"
    INDEX 01 00:40:17
  TRACK 30 AUDIO
    TITLE "0:"
    INDEX 01 00:44:38
  TRACK 31 AUDIO
    TITLE "12:cjc041_0858"
    INDEX 01 00:45:20
  TRACK 32 AUDIO
    TITLE "0:"
    INDEX 01 00:46:43
  TRACK 33 AUDIO
    TITLE "13:cjc041_0859"
    INDEX 01 00:47:25
  TRACK 34 AUDIO
    TITLE "0:"
    INDEX 01 00:50:54
  TRACK 35 AUDIO
    TITLE "14:cjc041_0860"
    INDEX 01 00:51:38
  TRACK 36 AUDIO
    TITLE "0:"
    INDEX 01 00:54:38
  TRACK 37 AUDIO
    TITLE "12:cjc041_0861"
    INDEX 01 00:55:24
  TRACK 38 AUDIO
    TITLE "0:"
    INDEX 01 00:56:74
  TRACK 39 AUDIO
    TITLE "13:cjc041_0862"
    INDEX 01 00:57:46
  TRACK 40 AUDIO
    TITLE "0:"
    INDEX 01 00:59:26
  TRACK 41 AUDIO
    TITLE "14:cjc041_0863"
    INDEX 01 01:00:04
  TRACK 42 AUDIO
    TITLE "0:"
    INDEX 01 01:03:12
  TRACK 43 AUDIO
    TITLE "12:cjc041_0864"
    INDEX 01 01:03:73
  TRACK 44 AUDIO
    TITLE "0:"
    INDEX 01 01:05:30
  TRACK 45 AUDIO
    TITLE "13:cjc041_0865"
    INDEX 01 01:06:18
  TRACK 46 AUDIO
    TITLE "0:"
    INDEX 01 01:09:12
  TRACK 47 AUDIO
    TITLE "14:cjc041_0866"
    INDEX 01 01:09:63
  TRACK 48 AUDIO
    TITLE "0:"
    INDEX 01 01:12:40
  TRACK 49 AUDIO
    TITLE "12:cjc041_0867"
    INDEX 01 01:13:22
  TRACK 50 AUDIO
    TITLE "0:"
    INDEX 01 01:14:55
  TRACK 51 AUDIO
    TITLE "13:cjc041_0868"
    INDEX 01 01:15:42
  TRACK 52 AUDIO
    TITLE "0:"
    INDEX 01 01:17:24
  TRACK 53 AUDIO
    TITLE "14:cjc041_0869"
    INDEX 01 01:18:02
  TRACK 54 AUDIO
    TITLE "0:"
    INDEX 01 01:22:17
  TRACK 55 AUDIO
    TITLE "12:cjc041_0870"
    INDEX 01 01:23:01
  TRACK 56 AUDIO
    TITLE "0:"
    INDEX 01 01:24:61
  TRACK 57 AUDIO
    TITLE "13:cjc041_0871"
    INDEX 01 01:25:33
  TRACK 58 AUDIO
    TITLE "0:"
    INDEX 01 01:27:53
  TRACK 59 AUDIO
    TITLE "14:cjc041_0872"
    INDEX 01 01:28:31
  TRACK 60 AUDIO
    TITLE "0:"
    INDEX 01 01:32:13
  TRACK 61 AUDIO
    TITLE "12:cjc041_0873"
    INDEX 01 01:32:74
  TRACK 62 AUDIO
    TITLE "0:"
    INDEX 01 01:34:42
  TRACK 63 AUDIO
    TITLE "13:cjc041_0874"
    INDEX 01 01:35:20
  TRACK 64 AUDIO
    TITLE "0:"
    INDEX 01 01:36:60
  TRACK 65 AUDIO
    TITLE "14:cjc041_0875"
    INDEX 01 01:37:42
  TRACK 66 AUDIO
    TITLE "0:"
    INDEX 01 01:40:64
  TRACK 67 AUDIO
    TITLE "12:cjc041_0876"
    INDEX 01 01:41:44
  TRACK 68 AUDIO
    TITLE "0:"
    INDEX 01 01:43:02
  TRACK 69 AUDIO
    TITLE "13:cjc041_0877"
    INDEX 01 01:43:56
  TRACK 70 AUDIO
    TITLE "0:"
    INDEX 01 01:47:46
  TRACK 71 AUDIO
    TITLE "14:cjc041_0878"
    INDEX 01 01:48:26
  TRACK 72 AUDIO
    TITLE "0:"
    INDEX 01 01:53:59
  TRACK 73 AUDIO
    TITLE "12:cjc041_0879"
    INDEX 01 01:54:46
  TRACK 74 AUDIO
    TITLE "0:"
    INDEX 01 01:56:08
  TRACK 75 AUDIO
    TITLE "13:cjc041_0880"
    INDEX 01 01:56:61
  TRACK 76 AUDIO
    TITLE "0:"
    INDEX 01 01:58:52
  TRACK 77 AUDIO
    TITLE "14:cjc041_0881"
    INDEX 01 01:59:26
  TRACK 78 AUDIO
    TITLE "0:"
    INDEX 01 02:04:19
  TRACK 79 AUDIO
    TITLE "12:cjc041_0882"
    INDEX 01 02:05:03
  TRACK 80 AUDIO
    TITLE "0:"
    INDEX 01 02:06:46
  TRACK 81 AUDIO
    TITLE "13:cjc041_0883"
    INDEX 01 02:07:26
  TRACK 82 AUDIO
    TITLE "0:"
    INDEX 01 02:09:07
  TRACK 83 AUDIO
    TITLE "14:cjc041_0884"
    INDEX 01 02:09:62
  TRACK 84 AUDIO
    TITLE "0:"
    INDEX 01 02:13:63
  TRACK 85 AUDIO
    TITLE "12:cjc041_0885"
    INDEX 01 02:14:43
  TRACK 86 AUDIO
    TITLE "0:"
    INDEX 01 02:16:11
  TRACK 87 AUDIO
    TITLE "13:cjc041_0886"
    INDEX 01 02:16:64
  TRACK 88 AUDIO
    TITLE "0:"
    INDEX 01 02:17:51
  TRACK 89 AUDIO
    TITLE "14:cjc041_0887"
    INDEX 01 02:18:29
  TRACK 90 AUDIO
    TITLE "0:"
    INDEX 01 02:21:73
  TRACK 91 AUDIO
    TITLE "12:cjc041_0888"
    INDEX 01 02:22:56
  TRACK 92 AUDIO
    TITLE "0:"
    INDEX 01 02:24:49
  TRACK 93 AUDIO
    TITLE "13:cjc041_0889"
    INDEX 01 02:25:31
  TRACK 94 AUDIO
    TITLE "0:"
    INDEX 01 02:27:44
  TRACK 95 AUDIO
    TITLE "14:cjc041_0890"
    INDEX 01 02:28:20
  TRACK 96 AUDIO
    TITLE "0:"
    INDEX 01 02:31:10
